<?xml version="1.0" encoding="utf-8"?>
<!-- Generator: Adobe Illustrator 15.0.2, SVG Export Plug-In . SVG Version: 6.00 Build 0)  -->
<!DOCTYPE svg PUBLIC "-//W3C//DTD SVG 1.1//EN" "http://www.w3.org/Graphics/SVG/1.1/DTD/svg11.dtd">
<svg version="1.1" id="Calque_1" xmlns="http://www.w3.org/2000/svg" xmlns:xlink="http://www.w3.org/1999/xlink" x="0px" y="0px"
	 width="512px" height="512px" viewBox="0 0 512 512" enable-background="new 0 0 512 512" xml:space="preserve">
<g display="none">
	<path display="inline" fill="#343435" d="M344.231,255.777c-21.963,0.001-39.769,17.808-39.77,39.77
		c0.001,21.964,17.805,39.771,39.77,39.771c21.963-0.001,39.77-17.807,39.769-39.771C384,273.584,366.194,255.778,344.231,255.777z
		 M369.487,282.221c-0.001,6.59-5.343,11.932-11.931,11.932c-6.59,0-11.931-5.342-11.931-11.932c0-6.587,5.342-11.929,11.931-11.93
		C364.145,270.291,369.487,275.632,369.487,282.221z"/>
	<defs>
		<filter id="Adobe_OpacityMaskFilter" filterUnits="userSpaceOnUse" x="255.186" y="306.405" width="73.887" height="77.595">
			<feFlood  style="flood-color:white;flood-opacity:1" result="back"/>
			<feBlend  in="SourceGraphic" in2="back" mode="normal"/>
		</filter>
	</defs>
	<mask maskUnits="userSpaceOnUse" x="255.186" y="306.405" width="73.887" height="77.595" id="SVGID_1_" display="inline">
		<g filter="url(#Adobe_OpacityMaskFilter)">
			<path stroke="#000000" stroke-width="14.9649" stroke-miterlimit="10" d="M344.231,255.777
				c-21.963,0.001-39.769,17.808-39.77,39.77c0.001,21.964,17.805,39.771,39.77,39.771c21.963-0.001,39.77-17.807,39.769-39.771
				C384,273.584,366.194,255.778,344.231,255.777z M369.487,282.221c-0.001,6.59-5.343,11.932-11.931,11.932
				c-6.59,0-11.931-5.342-11.931-11.932c0-6.587,5.342-11.929,11.931-11.93C364.145,270.291,369.487,275.632,369.487,282.221z"/>
		</g>
	</mask>
	<path display="inline" mask="url(#SVGID_1_)" fill="#343435" d="M274.106,368.196c-1.918,1.918-5.025,1.918-6.942,0
		c-1.919-1.917-1.919-5.026,0-6.944l48.233-48.234l-6.703-6.612l-53.508,53.508c0,0,0,14.094,0,18.244
		c0,5.595,5.307,5.302,5.307,5.302L281.374,384l3.479-3.479c0,0,7.203,0.002,11.112,0.002c3.907-0.002,3.74-3.744,3.74-3.744
		l-0.002-11.149c0,0,6.385-0.001,11.15,0c4.54,0,4.32-4.32,4.32-4.32V351c0,0,6.501,0,10.309,0.002c3.811,0,3.589-3.588,3.589-3.588
		v-20.906l-6.685-6.594L274.106,368.196z"/>
</g>
<g>
	<g>
		<path fill="#999999" d="M227.681,234.459c57.597,0,102.435-52.484,100.154-117.23C325.549,52.487,277,0,219.409,0
			c-57.597,0-102.435,52.487-100.154,117.229C121.544,181.975,170.089,234.459,227.681,234.459z M321.143,234.459
			c0,0-40.375,43.674-91.143,43.674c-50.772,0-91.145-43.674-91.145-43.674s-61.169-3.7-97.875,40.438
			C4.281,319.028,0,471.04,0,471.04h237.001c1.757-4.584,3.636-8.996,5.614-13.129c2.154-4.506,4.322-8.637,6.442-12.271
			c2.771-4.762,5.319-8.24,8.007-10.934l68.561-68.563c-1.176-5.918-1.939-11.861-2.281-17.771
			c-0.598-10.156,0.178-20.342,2.305-30.256c2.133-10.015,5.846-19.931,11.027-29.44c5.168-9.492,12.119-18.637,20.656-27.17
			c5.791-5.794,11.947-10.801,18.395-15.035C347.379,233.609,321.143,234.459,321.143,234.459z"/>
	</g>
	<g>
		<path fill="#F1BE41" d="M488.222,271.762c7.219,7.219,12.91,15.781,17.078,25.693c4.168,9.914,6.393,20.302,6.672,31.159
			c0.283,10.859-1.574,21.721-5.566,32.578c-3.994,10.861-10.51,20.809-19.549,29.846c-14.572,14.57-30.283,23.908-47.133,28.008
			c-16.848,4.096-33.783,3.096-50.806-2.996l-28.166,28.162l-16.08-0.107l-12.188,12.191l0.107,16.076l-8.092,8.096l-16.08-0.105
			l-3.891,3.887l-0.104,16.292l-8.092,8.092c-7.076,1.328-13.697,2.27-19.861,2.836c-2.596,0.207-5.201,0.367-7.83,0.471
			c-2.627,0.107-5.076,0.07-7.359-0.104c-2.275-0.176-4.303-0.494-6.089-0.949s-3.138-1.139-4.051-2.045
			c-1.188-1.195-1.73-3.311-1.628-6.359c0.105-3.051,0.67-6.552,1.684-10.509c1.015-3.959,2.367-8.18,4.043-12.66
			c1.684-4.484,3.487-8.742,5.415-12.771c1.926-4.029,3.816-7.637,5.676-10.824c1.855-3.188,3.484-5.477,4.885-6.879l76.504-76.508
			c-2.449-8.338-3.924-16.711-4.41-25.115c-0.494-8.404,0.135-16.709,1.893-24.904c1.746-8.196,4.76-16.22,9.035-24.065
			c4.27-7.844,10.016-15.381,17.232-22.594c9.037-9.041,18.848-15.691,29.426-19.968c10.579-4.271,21.14-6.426,31.685-6.464
			c10.541-0.031,20.629,1.896,30.262,5.78C472.476,258.887,480.941,264.479,488.222,271.762z M475.3,373.589
			c5.672-5.67,10.053-12.15,13.133-19.439c3.084-7.283,4.678-14.867,4.785-22.748c0.102-7.881-1.406-15.729-4.52-23.54
			c-3.119-7.811-8.041-15.078-14.766-21.809c-6.658-6.654-13.768-11.416-21.332-14.291c-7.566-2.871-15.137-4.096-22.701-3.672
			c-7.564,0.418-14.873,2.293-21.908,5.619c-7.044,3.326-13.396,7.828-19.073,13.502L475.3,373.589z M367.165,395.347l-7.459-7.461
			l-78.08,78.08l-3.68,12.293l11.137-4.832L367.165,395.347z"/>
	</g>
</g>
</svg>
