<?xml version="1.0" encoding="utf-8"?>
<!-- Generator: Adobe Illustrator 15.0.2, SVG Export Plug-In . SVG Version: 6.00 Build 0)  -->
<!DOCTYPE svg PUBLIC "-//W3C//DTD SVG 1.1//EN" "http://www.w3.org/Graphics/SVG/1.1/DTD/svg11.dtd">
<svg version="1.1" id="Calque_1" xmlns="http://www.w3.org/2000/svg" xmlns:xlink="http://www.w3.org/1999/xlink" x="0px" y="0px"
	 width="512px" height="512px" viewBox="0 0 512 512" enable-background="new 0 0 512 512" xml:space="preserve">
<g>
	<polygon fill="#333333" points="421.768,404.354 421.768,320.906 396.448,320.906 396.448,404.354 314.276,404.354 314.276,429.67 
		396.448,429.67 396.448,512 421.768,512 421.768,429.67 504.482,429.67 504.482,404.354 	"/>
	<path fill="#333333" d="M188.439,0C118.855,0,62.454,56.406,62.454,126.004c0,69.624,56.4,126.028,125.984,126.028
		c69.634,0,126.029-56.404,126.029-126.028C314.468,56.406,258.073,0,188.439,0z M194.596,225.804
		c-37.565,0-70.611-24.658-89.867-61.998h179.71C265.182,201.148,232.174,225.804,194.596,225.804z"/>
	<path fill="#333333" d="M264.489,268.366c-22.662,12.164-48.554,19.084-76.05,19.084c-27.458,0-53.349-6.92-76.004-19.076
		c-48.952,12.864-87.318,43.35-104.916,108.895h361.909C351.84,311.712,313.487,281.224,264.489,268.366z"/>
</g>
</svg>
